<svg width="172" height="62" viewBox="0 0 172 62" fill="none" xmlns="http://www.w3.org/2000/svg">
<path d="M36.4025 0.160645H13.4101V8.16289H30.7891L45.5994 47.2029H55.1667L36.4025 0.160645Z" fill="black"/>
<path d="M23.9471 39.2008H0.404297V47.2031H23.9471V39.2008Z" fill="black"/>
<path fill-rule="evenodd" clip-rule="evenodd" d="M86.4182 46.0126L86.3918 45.9865C86.2218 50.3287 84.8654 53.6588 82.267 55.9237C80.5869 57.3974 78.1648 58.4544 75.4874 59.0397C72.8054 59.626 69.8366 59.7458 67.0395 59.3192C61.4641 58.4687 56.4244 55.4042 55.9329 49.3785L55.8975 48.9448H63.6596L63.7124 49.285C64.1277 51.9604 66.5544 53.3143 69.4223 53.597C70.8435 53.7371 72.3328 53.6052 73.6497 53.2512C74.9721 52.8957 76.0869 52.3257 76.7904 51.6169L76.8014 51.6059L76.8132 51.5956C77.2661 51.2051 77.6222 50.6223 77.895 49.8839C78.1671 49.1474 78.3475 48.28 78.4641 47.3479C78.6976 45.4813 78.669 43.4136 78.645 41.719L78.645 41.7154L78.642 41.5088C76.6981 44.5318 74.1617 46.2181 71.4824 46.8753C68.5155 47.6031 65.4131 47.0597 62.8011 45.7408C59.807 44.3129 57.8043 41.7119 56.5591 38.7262C55.3143 35.7411 54.8147 32.3457 54.839 29.2717C54.807 23.2802 57.642 16.2157 63.358 13.5551C65.9233 12.3412 69.084 11.8606 72.0173 12.5461C74.5984 13.1492 76.9938 14.6544 78.6326 17.3302V13.0912H86.4182V46.0126ZM76.6262 37.4091C75.2486 39.5027 73.2208 40.8539 70.5375 40.8142L70.5297 40.8141C67.8864 40.8255 65.8983 39.477 64.5533 37.3992C63.2008 35.3098 62.5112 32.4939 62.5112 29.6545C62.5112 26.8152 63.2008 23.9998 64.5533 21.9114C65.8981 19.8347 67.8861 18.4877 70.5294 18.5009L70.5362 18.501L70.5431 18.5008C73.2702 18.4232 75.3053 19.747 76.6746 21.8165C78.0528 23.8995 78.7472 26.7324 78.7368 29.5959C78.7264 32.459 78.0114 35.3039 76.6262 37.4091Z" fill="black"/>
<path d="M99.0429 17.511V13.0748H91.6458V47.2268H99.4071V26.3022C99.4071 25.2234 99.5856 24.2016 99.9338 23.2347C100.282 22.2674 100.767 21.4464 101.377 20.7659L101.384 20.758C102 20.0337 102.734 19.486 103.614 19.11L103.62 19.1071L103.627 19.104C104.506 18.6908 105.498 18.4766 106.626 18.4766C108.628 18.4766 110.023 19.0182 110.89 20.029L110.896 20.0356C111.781 21.0218 112.3 22.6787 112.38 25.097V47.2268H120.142V23.2763C120.142 19.6552 119.124 16.8649 117.021 14.9916C114.936 13.1343 112.103 12.224 108.577 12.224C106.437 12.224 104.472 12.7385 102.699 13.7879C101.231 14.6236 100.017 16.0652 99.0429 17.511Z" fill="black"/>
<path fill-rule="evenodd" clip-rule="evenodd" d="M153.307 17.648C150.569 14.2623 146.46 12.0653 141.01 12.2321C135.561 12.0653 131.451 14.2623 128.714 17.648C125.984 21.0246 124.632 25.5636 124.633 30.0819C124.634 34.6003 125.986 39.1388 128.716 42.5143C131.454 45.8989 135.563 48.0944 141.01 47.9256C146.458 48.0944 150.567 45.8989 153.304 42.5143C156.035 39.1388 157.387 34.6003 157.388 30.0819C157.388 25.5636 156.037 21.0246 153.307 17.648ZM147.452 38.1116C146.006 40.2682 143.864 41.6763 141.012 41.6649H141.009C138.157 41.6763 136.015 40.2682 134.569 38.1116C133.115 35.9431 132.373 33.0228 132.371 30.0796C132.369 27.1364 133.107 24.2168 134.56 22.0496C136.004 19.8946 138.148 18.4876 141.008 18.5009L141.012 18.5009C143.873 18.4876 146.016 19.8946 147.461 22.0496C148.914 24.2168 149.652 27.1364 149.65 30.0796C149.648 33.0228 148.906 35.9431 147.452 38.1116Z" fill="black"/>
<path d="M91.5724 59.7393V52.7511H94.0633C94.6047 52.7511 95.054 52.8443 95.4112 53.0309C95.7706 53.2174 96.039 53.4756 96.2164 53.8054C96.3939 54.133 96.4826 54.5118 96.4826 54.9417C96.4826 55.3694 96.3927 55.7458 96.213 56.0711C96.0356 56.3942 95.7672 56.6455 95.4077 56.8252C95.0506 57.005 94.6013 57.0948 94.0599 57.0948H92.173V56.1872H93.9644C94.3056 56.1872 94.5831 56.1383 94.797 56.0404C95.0131 55.9426 95.1712 55.8004 95.2713 55.6139C95.3713 55.4274 95.4214 55.2033 95.4214 54.9417C95.4214 54.6778 95.3702 54.4492 95.2678 54.2559C95.1678 54.0625 95.0097 53.9146 94.7935 53.8123C94.5797 53.7076 94.2988 53.6553 93.9507 53.6553H92.6268V59.7393H91.5724ZM95.0222 56.5864L96.7487 59.7393H95.5476L93.8552 56.5864H95.0222ZM99.6847 59.845C99.1683 59.845 98.7236 59.7347 98.3505 59.5141C97.9797 59.2911 97.6931 58.9783 97.4906 58.5757C97.2905 58.1708 97.1904 57.6965 97.1904 57.1528C97.1904 56.616 97.2905 56.1428 97.4906 55.7333C97.6931 55.3239 97.9752 55.0043 98.3369 54.7745C98.7008 54.5448 99.1262 54.4299 99.613 54.4299C99.9088 54.4299 100.195 54.4788 100.473 54.5766C100.75 54.6744 101 54.828 101.22 55.0372C101.441 55.2465 101.615 55.5184 101.742 55.8528C101.87 56.1849 101.933 56.5887 101.933 57.0641V57.4258H97.767V56.6615H100.934C100.934 56.393 100.879 56.1553 100.77 55.9483C100.661 55.739 100.507 55.5741 100.309 55.4535C100.113 55.333 99.8837 55.2727 99.6199 55.2727C99.3332 55.2727 99.083 55.3432 98.8692 55.4842C98.6576 55.623 98.4938 55.805 98.3778 56.0302C98.2641 56.2531 98.2072 56.4954 98.2072 56.757V57.3541C98.2072 57.7045 98.2686 58.0024 98.3915 58.2481C98.5166 58.4938 98.6906 58.6815 98.9135 58.8111C99.1365 58.9385 99.3969 59.0022 99.6949 59.0022C99.8883 59.0022 100.065 58.9749 100.224 58.9203C100.383 58.8635 100.521 58.7793 100.637 58.6678C100.753 58.5564 100.841 58.4187 100.903 58.255L101.868 58.429C101.791 58.7133 101.652 58.9624 101.452 59.1762C101.254 59.3878 101.005 59.5527 100.705 59.671C100.407 59.787 100.067 59.845 99.6847 59.845ZM104.398 59.8553C104.066 59.8553 103.766 59.7939 103.498 59.671C103.229 59.5459 103.016 59.3651 102.86 59.1285C102.705 58.8919 102.627 58.6019 102.627 58.2584C102.627 57.9626 102.684 57.7192 102.798 57.5282C102.912 57.3371 103.065 57.1858 103.259 57.0743C103.452 56.9629 103.668 56.8787 103.907 56.8218C104.146 56.765 104.389 56.7217 104.637 56.6922C104.951 56.6558 105.206 56.6262 105.402 56.6034C105.597 56.5784 105.739 56.5386 105.828 56.484C105.917 56.4294 105.961 56.3407 105.961 56.2179V56.194C105.961 55.896 105.877 55.6651 105.709 55.5013C105.543 55.3375 105.295 55.2556 104.965 55.2556C104.621 55.2556 104.351 55.3318 104.153 55.4842C103.957 55.6344 103.822 55.8016 103.747 55.9858L102.788 55.7675C102.902 55.449 103.068 55.1919 103.286 54.9963C103.507 54.7984 103.76 54.6551 104.047 54.5664C104.334 54.4754 104.635 54.4299 104.951 54.4299C105.16 54.4299 105.382 54.4549 105.617 54.5049C105.853 54.5527 106.074 54.6414 106.279 54.7711C106.486 54.9008 106.655 55.0862 106.787 55.3273C106.919 55.5661 106.985 55.8767 106.985 56.2588V59.7393H105.988V59.0227H105.948C105.882 59.1546 105.783 59.2843 105.651 59.4117C105.519 59.5391 105.349 59.6449 105.142 59.729C104.935 59.8132 104.687 59.8553 104.398 59.8553ZM104.62 59.0363C104.902 59.0363 105.143 58.9806 105.344 58.8691C105.546 58.7577 105.7 58.6121 105.804 58.4324C105.911 58.2504 105.965 58.0559 105.965 57.8489V57.1733C105.928 57.2097 105.858 57.2438 105.753 57.2757C105.651 57.3052 105.534 57.3314 105.402 57.3541C105.27 57.3746 105.141 57.3939 105.016 57.4121C104.891 57.4281 104.786 57.4417 104.702 57.4531C104.504 57.4781 104.323 57.5202 104.16 57.5793C103.998 57.6385 103.868 57.7238 103.771 57.8353C103.675 57.9444 103.627 58.09 103.627 58.272C103.627 58.5245 103.721 58.7156 103.907 58.8453C104.094 58.9727 104.331 59.0363 104.62 59.0363ZM112.079 55.7777L111.154 55.9415C111.116 55.8232 111.054 55.7106 110.97 55.6037C110.888 55.4968 110.777 55.4092 110.636 55.3409C110.495 55.2727 110.318 55.2386 110.107 55.2386C109.818 55.2386 109.577 55.3034 109.383 55.4331C109.19 55.5605 109.093 55.7254 109.093 55.9278C109.093 56.103 109.158 56.244 109.288 56.3509C109.418 56.4579 109.627 56.5454 109.916 56.6137L110.748 56.8048C111.231 56.9162 111.59 57.088 111.827 57.32C112.063 57.552 112.181 57.8535 112.181 58.2242C112.181 58.5382 112.09 58.818 111.908 59.0636C111.729 59.307 111.477 59.4981 111.154 59.6369C110.834 59.7757 110.462 59.845 110.039 59.845C109.452 59.845 108.973 59.7199 108.602 59.4697C108.231 59.2172 108.004 58.8589 107.92 58.3949L108.906 58.2447C108.967 58.5018 109.093 58.6963 109.284 58.8282C109.476 58.9579 109.725 59.0227 110.032 59.0227C110.366 59.0227 110.633 58.9533 110.834 58.8146C111.034 58.6735 111.134 58.5018 111.134 58.2993C111.134 58.1355 111.072 57.9979 110.95 57.8864C110.829 57.775 110.644 57.6908 110.393 57.6339L109.506 57.4394C109.017 57.328 108.655 57.1505 108.421 56.9071C108.189 56.6637 108.073 56.3555 108.073 55.9824C108.073 55.6731 108.16 55.4024 108.332 55.1703C108.505 54.9383 108.744 54.7574 109.049 54.6278C109.354 54.4958 109.703 54.4299 110.097 54.4299C110.663 54.4299 111.109 54.5527 111.434 54.7984C111.759 55.0418 111.974 55.3682 112.079 55.7777ZM115.319 59.845C114.827 59.845 114.399 59.7324 114.032 59.5072C113.666 59.282 113.382 58.967 113.179 58.562C112.977 58.1571 112.876 57.684 112.876 57.1426C112.876 56.5989 112.977 56.1235 113.179 55.7163C113.382 55.3091 113.666 54.9929 114.032 54.7677C114.399 54.5425 114.827 54.4299 115.319 54.4299C115.81 54.4299 116.239 54.5425 116.605 54.7677C116.971 54.9929 117.256 55.3091 117.458 55.7163C117.661 56.1235 117.762 56.5989 117.762 57.1426C117.762 57.684 117.661 58.1571 117.458 58.562C117.256 58.967 116.971 59.282 116.605 59.5072C116.239 59.7324 115.81 59.845 115.319 59.845ZM115.322 58.9886C115.641 58.9886 115.904 58.9044 116.114 58.7361C116.323 58.5677 116.478 58.3437 116.578 58.0639C116.68 57.7841 116.731 57.4758 116.731 57.1392C116.731 56.8048 116.68 56.4977 116.578 56.2179C116.478 55.9358 116.323 55.7095 116.114 55.5388C115.904 55.3682 115.641 55.2829 115.322 55.2829C115.001 55.2829 114.735 55.3682 114.524 55.5388C114.314 55.7095 114.159 55.9358 114.056 56.2179C113.956 56.4977 113.906 56.8048 113.906 57.1392C113.906 57.4758 113.956 57.7841 114.056 58.0639C114.159 58.3437 114.314 58.5677 114.524 58.7361C114.735 58.9044 115.001 58.9886 115.322 58.9886ZM119.729 56.6273V59.7393H118.708V54.4981H119.688V55.3512H119.753C119.873 55.0736 120.062 54.8507 120.319 54.6824C120.578 54.514 120.905 54.4299 121.298 54.4299C121.655 54.4299 121.968 54.5049 122.237 54.6551C122.505 54.8029 122.713 55.0236 122.861 55.3171C123.009 55.6105 123.083 55.9733 123.083 56.4055V59.7393H122.063V56.5284C122.063 56.1485 121.964 55.8516 121.766 55.6378C121.568 55.4217 121.296 55.3136 120.95 55.3136C120.714 55.3136 120.503 55.3648 120.319 55.4672C120.137 55.5696 119.993 55.7197 119.886 55.9176C119.781 56.1132 119.729 56.3498 119.729 56.6273ZM124.259 59.7393V54.4981H125.279V59.7393H124.259ZM124.774 53.6894C124.597 53.6894 124.444 53.6303 124.317 53.512C124.192 53.3914 124.129 53.2481 124.129 53.0821C124.129 52.9137 124.192 52.7704 124.317 52.6521C124.444 52.5316 124.597 52.4713 124.774 52.4713C124.952 52.4713 125.103 52.5316 125.228 52.6521C125.355 52.7704 125.419 52.9137 125.419 53.0821C125.419 53.2481 125.355 53.3914 125.228 53.512C125.103 53.6303 124.952 53.6894 124.774 53.6894ZM127.48 56.6273V59.7393H126.46V54.4981H127.439V55.3512H127.504C127.624 55.0736 127.813 54.8507 128.07 54.6824C128.33 54.514 128.656 54.4299 129.049 54.4299C129.407 54.4299 129.719 54.5049 129.988 54.6551C130.256 54.8029 130.464 55.0236 130.612 55.3171C130.76 55.6105 130.834 55.9733 130.834 56.4055V59.7393H129.814V56.5284C129.814 56.1485 129.715 55.8516 129.517 55.6378C129.319 55.4217 129.047 55.3136 128.701 55.3136C128.465 55.3136 128.254 55.3648 128.07 55.4672C127.888 55.5696 127.744 55.7197 127.637 55.9176C127.532 56.1132 127.48 56.3498 127.48 56.6273ZM134.208 61.8139C133.791 61.8139 133.433 61.7593 133.133 61.6501C132.835 61.5409 132.591 61.3964 132.403 61.2167C132.214 61.037 132.073 60.8403 131.979 60.6264L132.856 60.2647C132.918 60.3648 133 60.4706 133.102 60.5821C133.207 60.6958 133.348 60.7925 133.525 60.8721C133.705 60.9517 133.936 60.9915 134.218 60.9915C134.605 60.9915 134.924 60.8971 135.177 60.7083C135.429 60.5218 135.555 60.2238 135.555 59.8143V58.7838H135.491C135.429 58.8953 135.34 59.0193 135.224 59.1558C135.111 59.2923 134.954 59.4105 134.754 59.5106C134.553 59.6107 134.293 59.6608 133.972 59.6608C133.558 59.6608 133.185 59.5641 132.853 59.3707C132.523 59.1751 132.262 58.8873 132.068 58.5075C131.877 58.1253 131.782 57.6555 131.782 57.0982C131.782 56.5409 131.876 56.0632 132.065 55.6651C132.256 55.267 132.517 54.9622 132.85 54.7506C133.182 54.5368 133.558 54.4299 133.979 54.4299C134.304 54.4299 134.567 54.4845 134.767 54.5937C134.967 54.7006 135.123 54.8257 135.235 54.969C135.348 55.1123 135.436 55.2386 135.497 55.3478H135.573V54.4981H136.572V59.8553C136.572 60.3057 136.468 60.6753 136.258 60.9642C136.049 61.2531 135.766 61.467 135.409 61.6057C135.054 61.7445 134.653 61.8139 134.208 61.8139ZM134.197 58.8146C134.491 58.8146 134.739 58.7463 134.941 58.6098C135.146 58.4711 135.301 58.2732 135.405 58.0161C135.512 57.7568 135.566 57.4463 135.566 57.0846C135.566 56.732 135.513 56.4215 135.409 56.153C135.304 55.8846 135.151 55.6753 134.948 55.5252C134.746 55.3728 134.495 55.2966 134.197 55.2966C133.89 55.2966 133.634 55.3762 133.43 55.5354C133.225 55.6924 133.07 55.9062 132.966 56.1769C132.863 56.4476 132.812 56.7502 132.812 57.0846C132.812 57.4281 132.864 57.7295 132.969 57.9888C133.074 58.2481 133.228 58.4506 133.433 58.5962C133.64 58.7418 133.895 58.8146 134.197 58.8146ZM140.771 59.7393H139.652L142.167 52.7511H143.385L145.9 59.7393H144.781L142.805 54.0204H142.75L140.771 59.7393ZM140.959 57.0027H144.59V57.8898H140.959V57.0027ZM148.748 61.8139C148.332 61.8139 147.973 61.7593 147.673 61.6501C147.375 61.5409 147.132 61.3964 146.943 61.2167C146.754 61.037 146.613 60.8403 146.52 60.6264L147.397 60.2647C147.458 60.3648 147.54 60.4706 147.642 60.5821C147.747 60.6958 147.888 60.7925 148.066 60.8721C148.245 60.9517 148.476 60.9915 148.758 60.9915C149.145 60.9915 149.465 60.8971 149.717 60.7083C149.97 60.5218 150.096 60.2238 150.096 59.8143V58.7838H150.031C149.97 58.8953 149.881 59.0193 149.765 59.1558C149.651 59.2923 149.494 59.4105 149.294 59.5106C149.094 59.6107 148.833 59.6608 148.513 59.6608C148.099 59.6608 147.725 59.5641 147.393 59.3707C147.064 59.1751 146.802 58.8873 146.609 58.5075C146.417 58.1253 146.322 57.6555 146.322 57.0982C146.322 56.5409 146.416 56.0632 146.605 55.6651C146.796 55.267 147.058 54.9622 147.39 54.7506C147.722 54.5368 148.099 54.4299 148.519 54.4299C148.845 54.4299 149.107 54.4845 149.308 54.5937C149.508 54.7006 149.664 54.8257 149.775 54.969C149.889 55.1123 149.976 55.2386 150.038 55.3478H150.113V54.4981H151.113V59.8553C151.113 60.3057 151.008 60.6753 150.799 60.9642C150.589 61.2531 150.306 61.467 149.949 61.6057C149.594 61.7445 149.194 61.8139 148.748 61.8139ZM148.738 58.8146C149.031 58.8146 149.279 58.7463 149.482 58.6098C149.686 58.4711 149.841 58.2732 149.946 58.0161C150.053 57.7568 150.106 57.4463 150.106 57.0846C150.106 56.732 150.054 56.4215 149.949 56.153C149.844 55.8846 149.691 55.6753 149.488 55.5252C149.286 55.3728 149.036 55.2966 148.738 55.2966C148.431 55.2966 148.175 55.3762 147.97 55.5354C147.765 55.6924 147.611 55.9062 147.506 56.1769C147.404 56.4476 147.352 56.7502 147.352 57.0846C147.352 57.4281 147.405 57.7295 147.509 57.9888C147.614 58.2481 147.769 58.4506 147.973 58.5962C148.18 58.7418 148.435 58.8146 148.738 58.8146ZM154.548 59.845C154.031 59.845 153.587 59.7347 153.213 59.5141C152.843 59.2911 152.556 58.9783 152.354 58.5757C152.153 58.1708 152.053 57.6965 152.053 57.1528C152.053 56.616 152.153 56.1428 152.354 55.7333C152.556 55.3239 152.838 55.0043 153.2 54.7745C153.564 54.5448 153.989 54.4299 154.476 54.4299C154.772 54.4299 155.058 54.4788 155.336 54.5766C155.613 54.6744 155.862 54.828 156.083 55.0372C156.304 55.2465 156.478 55.5184 156.605 55.8528C156.733 56.1849 156.796 56.5887 156.796 57.0641V57.4258H152.63V56.6615H155.796C155.796 56.393 155.742 56.1553 155.633 55.9483C155.524 55.739 155.37 55.5741 155.172 55.4535C154.976 55.333 154.747 55.2727 154.483 55.2727C154.196 55.2727 153.946 55.3432 153.732 55.4842C153.521 55.623 153.357 55.805 153.241 56.0302C153.127 56.2531 153.07 56.4954 153.07 56.757V57.3541C153.07 57.7045 153.132 58.0024 153.254 58.2481C153.38 58.4938 153.554 58.6815 153.776 58.8111C153.999 58.9385 154.26 59.0022 154.558 59.0022C154.751 59.0022 154.928 58.9749 155.087 58.9203C155.246 58.8635 155.384 58.7793 155.5 58.6678C155.616 58.5564 155.704 58.4187 155.766 58.255L156.731 58.429C156.654 58.7133 156.515 58.9624 156.315 59.1762C156.117 59.3878 155.868 59.5527 155.568 59.671C155.27 59.787 154.93 59.845 154.548 59.845ZM158.756 56.6273V59.7393H157.736V54.4981H158.715V55.3512H158.78C158.901 55.0736 159.09 54.8507 159.347 54.6824C159.606 54.514 159.932 54.4299 160.326 54.4299C160.683 54.4299 160.996 54.5049 161.264 54.6551C161.533 54.8029 161.741 55.0236 161.889 55.3171C162.037 55.6105 162.111 55.9733 162.111 56.4055V59.7393H161.09V56.5284C161.09 56.1485 160.991 55.8516 160.793 55.6378C160.596 55.4217 160.324 55.3136 159.978 55.3136C159.741 55.3136 159.531 55.3648 159.347 55.4672C159.165 55.5696 159.02 55.7197 158.913 55.9176C158.809 56.1132 158.756 56.3498 158.756 56.6273ZM165.733 54.4981V55.3171H162.87V54.4981H165.733ZM163.638 53.2424H164.658V58.2004C164.658 58.3983 164.688 58.5473 164.747 58.6474C164.806 58.7452 164.882 58.8123 164.976 58.8487C165.071 58.8828 165.175 58.8999 165.286 58.8999C165.368 58.8999 165.44 58.8942 165.501 58.8828C165.563 58.8714 165.61 58.8623 165.644 58.8555L165.829 59.6983C165.77 59.7211 165.685 59.7438 165.576 59.7666C165.467 59.7916 165.331 59.8052 165.167 59.8075C164.898 59.8121 164.648 59.7643 164.416 59.6642C164.184 59.5641 163.996 59.4094 163.853 59.2001C163.71 58.9908 163.638 58.7281 163.638 58.4119V53.2424ZM170.513 55.7777L169.588 55.9415C169.549 55.8232 169.488 55.7106 169.404 55.6037C169.322 55.4968 169.21 55.4092 169.069 55.3409C168.928 55.2727 168.752 55.2386 168.54 55.2386C168.251 55.2386 168.01 55.3034 167.817 55.4331C167.624 55.5605 167.527 55.7254 167.527 55.9278C167.527 56.103 167.592 56.244 167.721 56.3509C167.851 56.4579 168.06 56.5454 168.349 56.6137L169.182 56.8048C169.664 56.9162 170.024 57.088 170.26 57.32C170.497 57.552 170.615 57.8535 170.615 58.2242C170.615 58.5382 170.524 58.818 170.342 59.0636C170.162 59.307 169.911 59.4981 169.588 59.6369C169.267 59.7757 168.895 59.845 168.472 59.845C167.885 59.845 167.406 59.7199 167.036 59.4697C166.665 59.2172 166.437 58.8589 166.353 58.3949L167.339 58.2447C167.401 58.5018 167.527 58.6963 167.718 58.8282C167.909 58.9579 168.158 59.0227 168.465 59.0227C168.8 59.0227 169.067 58.9533 169.267 58.8146C169.467 58.6735 169.567 58.5018 169.567 58.2993C169.567 58.1355 169.506 57.9979 169.383 57.8864C169.263 57.775 169.077 57.6908 168.827 57.6339L167.94 57.4394C167.451 57.328 167.089 57.1505 166.855 56.9071C166.623 56.6637 166.507 56.3555 166.507 55.9824C166.507 55.6731 166.593 55.4024 166.766 55.1703C166.939 54.9383 167.178 54.7574 167.483 54.6278C167.787 54.4958 168.137 54.4299 168.53 54.4299C169.097 54.4299 169.542 54.5527 169.868 54.7984C170.193 55.0418 170.408 55.3682 170.513 55.7777Z" fill="#646464"/>
</svg>
