<svg width="500" height="200" viewBox="0 0 500 200" fill="none" xmlns="http://www.w3.org/2000/svg">
<rect width="500" height="200" fill="white"/>
<path fill-rule="evenodd" clip-rule="evenodd" d="M98.7479 62.1327C109.371 50.1135 126.964 46.5876 141.427 53.5253C160.642 62.744 167.653 86.2274 157.191 104.342L133.655 145.048C132.34 147.322 130.176 148.982 127.638 149.662C125.1 150.342 122.396 149.987 120.119 148.676L148.613 99.3849C156.203 86.2377 151.126 69.1962 137.195 62.4865C126.741 57.4523 113.963 59.9672 106.241 68.6248C101.981 73.3777 99.5896 79.514 99.5099 85.8958C99.4301 92.2776 101.667 98.4718 105.807 103.33C106.551 104.201 107.351 105.023 108.203 105.79L91.569 134.617C90.9185 135.744 90.0524 136.731 89.0201 137.524C87.9879 138.316 86.8097 138.897 85.5529 139.234C84.296 139.571 82.9852 139.657 81.6951 139.487C80.405 139.317 79.161 138.895 78.034 138.245L96.0925 106.949C93.4986 103.209 91.6358 99.0124 90.6024 94.5801L79.5364 113.796C78.221 116.071 76.0567 117.73 73.5188 118.41C70.9808 119.091 68.2766 118.736 66 117.424L94.6167 67.8566C95.8078 65.8211 97.1912 63.9043 98.7479 62.1327ZM131.777 77.9101C138.669 81.8904 141.049 90.742 137.061 97.6308L109.62 145.042C108.305 147.316 106.14 148.976 103.602 149.656C101.064 150.336 98.3602 149.981 96.0836 148.67L121.564 104.53C119.519 104.1 117.593 103.231 115.917 101.983C114.241 100.736 112.856 99.1395 111.857 97.3045C110.858 95.4695 110.269 93.4396 110.131 91.355C109.993 89.2703 110.309 87.1805 111.058 85.2299C111.806 83.2793 112.969 81.5144 114.466 80.057C115.963 78.5996 117.758 77.4844 119.728 76.7884C121.698 76.0925 123.796 75.8324 125.876 76.026C127.956 76.2197 129.97 76.8625 131.777 77.9101ZM121.796 86.8202C121.324 87.1822 120.928 87.6337 120.631 88.1487H120.63C120.182 88.9243 119.974 89.8152 120.033 90.7088C120.092 91.6023 120.414 92.4585 120.959 93.1689C121.505 93.8792 122.248 94.412 123.096 94.6998C123.944 94.9876 124.859 95.0175 125.724 94.7856C126.589 94.5538 127.365 94.0707 127.956 93.3974C128.546 92.7241 128.924 91.8909 129.041 91.003C129.157 90.1152 129.008 89.2126 128.612 88.4095C128.216 87.6063 127.591 86.9386 126.815 86.4908C126.301 86.1935 125.732 86.0005 125.143 85.9229C124.553 85.8453 123.954 85.8846 123.38 86.0386C122.806 86.1926 122.267 86.4581 121.796 86.8202Z" fill="#615EFF"/>
<path fill-rule="evenodd" clip-rule="evenodd" d="M98.7479 62.1327C109.371 50.1135 126.964 46.5876 141.427 53.5253C160.642 62.744 167.653 86.2274 157.191 104.342L133.655 145.048C132.34 147.322 130.176 148.982 127.638 149.662C125.1 150.342 122.396 149.987 120.119 148.676L148.613 99.3849C156.203 86.2377 151.126 69.1962 137.195 62.4865C126.741 57.4523 113.963 59.9672 106.241 68.6248C101.981 73.3777 99.5896 79.514 99.5099 85.8958C99.4301 92.2776 101.667 98.4718 105.807 103.33C106.551 104.201 107.351 105.023 108.203 105.79L91.569 134.617C90.9185 135.744 90.0524 136.731 89.0201 137.524C87.9879 138.316 86.8097 138.897 85.5529 139.234C84.296 139.571 82.9852 139.657 81.6951 139.487C80.405 139.317 79.161 138.895 78.034 138.245L96.0925 106.949C93.4986 103.209 91.6358 99.0124 90.6024 94.5801L79.5364 113.796C78.221 116.071 76.0567 117.73 73.5188 118.41C70.9808 119.091 68.2766 118.736 66 117.424L94.6167 67.8566C95.8078 65.8211 97.1912 63.9043 98.7479 62.1327ZM131.777 77.9101C138.669 81.8904 141.049 90.742 137.061 97.6308L109.62 145.042C108.305 147.316 106.14 148.976 103.602 149.656C101.064 150.336 98.3602 149.981 96.0836 148.67L121.564 104.53C119.519 104.1 117.593 103.231 115.917 101.983C114.241 100.736 112.856 99.1395 111.857 97.3045C110.858 95.4695 110.269 93.4396 110.131 91.355C109.993 89.2703 110.309 87.1805 111.058 85.2299C111.806 83.2793 112.969 81.5144 114.466 80.057C115.963 78.5996 117.758 77.4844 119.728 76.7884C121.698 76.0925 123.796 75.8324 125.876 76.026C127.956 76.2197 129.97 76.8625 131.777 77.9101ZM121.796 86.8202C121.324 87.1822 120.928 87.6337 120.631 88.1487H120.63C120.182 88.9243 119.974 89.8152 120.033 90.7088C120.092 91.6023 120.414 92.4585 120.959 93.1689C121.505 93.8792 122.248 94.412 123.096 94.6998C123.944 94.9876 124.859 95.0175 125.724 94.7856C126.589 94.5538 127.365 94.0707 127.956 93.3974C128.546 92.7241 128.924 91.8909 129.041 91.003C129.157 90.1152 129.008 89.2126 128.612 88.4095C128.216 87.6063 127.591 86.9386 126.815 86.4908C126.301 86.1935 125.732 86.0005 125.143 85.9229C124.553 85.8453 123.954 85.8846 123.38 86.0386C122.806 86.1926 122.267 86.4581 121.796 86.8202Z" fill="#615EFF"/>
<path fill-rule="evenodd" clip-rule="evenodd" d="M180 126L200.566 73.2656H212.625L233.191 126H221.695L217.266 114.188H195.926L191.496 126H180ZM213.75 104.695C212.344 100.57 211.09 96.8789 209.988 93.6211C208.887 90.3633 207.762 87 206.613 83.5312C205.465 87 204.328 90.3633 203.203 93.6211C202.102 96.8789 200.848 100.57 199.441 104.695H213.75ZM236.672 78.8906C236.672 77.2031 237.188 75.8438 238.219 74.8125C239.25 73.7812 240.609 73.2656 242.297 73.2656C243.984 73.2656 245.344 73.7812 246.375 74.8125C247.406 75.8438 247.922 77.2031 247.922 78.8906C247.922 80.5781 247.406 81.9375 246.375 82.9688C245.344 84 243.984 84.5156 242.297 84.5156C240.609 84.5156 239.25 84 238.219 82.9688C237.188 81.9375 236.672 80.5781 236.672 78.8906ZM237.234 126V90.8438H247.359V126H237.234ZM255.938 90.8438V126H266.062V110.496C266.062 106.793 266.895 103.945 268.559 101.953C270.223 99.9375 272.414 98.9297 275.133 98.9297C276.445 98.9297 277.781 99.1523 279.141 99.5977L280.547 90.8438C278.93 90.375 277.359 90.1406 275.836 90.1406C271.359 90.1406 267.844 92.0508 265.289 95.8711V90.8438H255.938ZM284.414 126V73.2656H294.539V94.3242C296.016 93.0117 297.703 91.9922 299.602 91.2656C301.5 90.5156 303.551 90.1406 305.754 90.1406C309.059 90.1406 312 90.9375 314.578 92.5312C317.156 94.1016 319.184 96.2695 320.66 99.0352C322.137 101.777 322.875 104.906 322.875 108.422C322.875 111.938 322.137 115.078 320.66 117.844C319.184 120.586 317.156 122.754 314.578 124.348C312 125.918 309.059 126.703 305.754 126.703C303.48 126.703 301.359 126.316 299.391 125.543C297.422 124.746 295.699 123.633 294.223 122.203L293.977 126H284.414ZM304.469 117.914C307.047 117.914 309.18 117.012 310.867 115.207C312.555 113.402 313.398 111.141 313.398 108.422C313.398 105.703 312.555 103.441 310.867 101.637C309.18 99.832 307.047 98.9297 304.469 98.9297C301.891 98.9297 299.758 99.832 298.07 101.637C296.383 103.441 295.539 105.703 295.539 108.422C295.539 111.141 296.383 113.402 298.07 115.207C299.758 117.012 301.891 117.914 304.469 117.914ZM339.793 108.035L331.566 90.8438H320.984L337.367 124.242L329.352 143.578H340.004L361.871 90.8438H351.184L341.691 113.766C341.457 112.617 341.176 111.562 340.848 110.602C340.52 109.641 340.168 108.785 339.793 108.035ZM363.242 90.8438H369.043V82.0547H379.168V90.8438H387.711V99.6328H379.168V112.57C379.168 114.234 379.695 115.547 380.75 116.508C381.828 117.445 383.188 117.914 384.828 117.914C386.047 117.914 387.301 117.645 388.59 117.105V125.402C386.363 126.27 384.172 126.703 382.016 126.703C377.844 126.703 374.633 125.59 372.383 123.363C370.156 121.113 369.043 117.902 369.043 113.73V99.6328H363.242V90.8438ZM406.906 116.191C405.219 114.973 404.059 113.391 403.426 111.445H430.848V108.387C430.848 104.848 430.051 101.707 428.457 98.9648C426.863 96.2227 424.684 94.0664 421.918 92.4961C419.176 90.9258 416.035 90.1406 412.496 90.1406C408.934 90.1406 405.746 90.9375 402.934 92.5312C400.145 94.1016 397.941 96.2578 396.324 99C394.707 101.719 393.898 104.824 393.898 108.316C393.898 111.855 394.742 115.02 396.43 117.809C398.117 120.574 400.449 122.754 403.426 124.348C406.402 125.918 409.836 126.703 413.727 126.703C416.164 126.703 418.707 126.305 421.355 125.508C424.027 124.711 426.723 123.246 429.441 121.113L423.324 113.801C422.012 115.043 420.547 116.062 418.93 116.859C417.336 117.633 415.32 118.02 412.883 118.02C410.609 118.02 408.617 117.41 406.906 116.191ZM419.827 104C419.267 102.755 418.464 101.697 417.418 100.828C415.895 99.5625 414.066 98.9297 411.934 98.9297C409.777 98.9297 407.902 99.5742 406.309 100.863C405.24 101.741 404.421 102.786 403.852 104H419.827Z" fill="#1A194D"/>
</svg>
