<?xml version="1.0" encoding="UTF-8" standalone="no"?>
<!-- Created with Inkscape (http://www.inkscape.org/) -->

<svg
   xmlns:dc="http://purl.org/dc/elements/1.1/"
   xmlns:cc="http://creativecommons.org/ns#"
   xmlns:rdf="http://www.w3.org/1999/02/22-rdf-syntax-ns#"
   xmlns:svg="http://www.w3.org/2000/svg"
   xmlns="http://www.w3.org/2000/svg"
   xmlns:sodipodi="http://sodipodi.sourceforge.net/DTD/sodipodi-0.dtd"
   xmlns:inkscape="http://www.inkscape.org/namespaces/inkscape"
   width="260.68744"
   height="40.004143"
   id="svg4127"
   version="1.1"
   inkscape:version="0.48.3.1 r9886"
   sodipodi:docname="logo-cubicweb.svg">
  <defs
     id="defs4129" />
  <sodipodi:namedview
     id="base"
     pagecolor="#ffffff"
     bordercolor="#666666"
     borderopacity="1.0"
     inkscape:pageopacity="0.0"
     inkscape:pageshadow="2"
     inkscape:zoom="5.6"
     inkscape:cx="65.025864"
     inkscape:cy="3.1272067"
     inkscape:document-units="px"
     inkscape:current-layer="layer1"
     showgrid="false"
     fit-margin-top="0"
     fit-margin-left="0"
     fit-margin-right="0"
     fit-margin-bottom="0"
     inkscape:window-width="1916"
     inkscape:window-height="1161"
     inkscape:window-x="1366"
     inkscape:window-y="18"
     inkscape:window-maximized="0"
     showguides="true"
     inkscape:guide-bbox="true">
    <sodipodi:guide
       orientation="1,0"
       position="-144.19927,66.164991"
       id="guide3458" />
  </sodipodi:namedview>
  <metadata
     id="metadata4132">
    <rdf:RDF>
      <cc:Work
         rdf:about="">
        <dc:format>image/svg+xml</dc:format>
        <dc:type
           rdf:resource="http://purl.org/dc/dcmitype/StillImage" />
        <dc:title />
      </cc:Work>
    </rdf:RDF>
  </metadata>
  <g
     inkscape:label="Calque 1"
     inkscape:groupmode="layer"
     id="layer1"
     transform="translate(-326.79915,-550.62789)">
    <g
       transform="matrix(1.0580599,0,0,1.0580599,1311.2897,209.92084)"
       id="g3151"
       style="font-size:32.60407639px;font-style:normal;font-weight:bold;line-height:125%;letter-spacing:0px;word-spacing:0px;fill:#2b0000;fill-opacity:1;stroke:none;font-family:orbitron;-inkscape-font-specification:orbitron">
      <path
         inkscape:connector-curvature="0"
         id="path3153"
         style="fill:#404042;fill-opacity:1"
         d="m -792.00021,355.53459 14.70444,0 0,4.27114 -14.70444,0 c -1.23896,0 -2.30402,-0.43473 -3.1952,-1.30417 -0.86944,-0.89117 -1.30416,-1.95624 -1.30416,-3.1952 l 0,-9.91164 c 0,-1.23894 0.43472,-2.29313 1.30416,-3.16259 0.89118,-0.89116 1.95624,-1.33675 3.1952,-1.33677 l 14.63923,0 0,4.27113 -14.63923,0 c -0.15215,2e-5 -0.22823,0.0761 -0.22822,0.22823 l 0,9.91164 c -10e-6,0.15216 0.0761,0.22824 0.22822,0.22823" />
      <path
         inkscape:connector-curvature="0"
         style="fill:#404042;fill-opacity:1"
         id="path3155"
         d="m -833.03908,340.89536 4.27114,0 0,14.411 c -2e-5,1.23896 -0.44561,2.30403 -1.33677,3.1952 -0.86946,0.86944 -1.92366,1.30417 -3.1626,1.30417 l -10.20507,0 c -1.2607,0 -2.32576,-0.43473 -3.1952,-1.30417 -0.86945,-0.89117 -1.30417,-1.95624 -1.30416,-3.1952 l 0,-14.411 4.27113,0 0,14.411 c -10e-6,0.15216 0.0761,0.22824 0.22823,0.22823 l 10.20507,0 c 0.15214,1e-5 0.22822,-0.0761 0.22823,-0.22823 l 0,-14.411" />
      <path
         inkscape:connector-curvature="0"
         style="fill:#404042;fill-opacity:1"
         id="path3157"
         d="m -811.05372,340.89536 c 1.23894,2e-5 2.29313,0.44561 3.16259,1.33677 0.89116,0.86946 1.33675,1.92365 1.33677,3.16259 l 0,9.91164 c -2e-5,1.23896 -0.44561,2.30403 -1.33677,3.1952 -0.86946,0.86944 -1.92365,1.30417 -3.16259,1.30417 l -14.70444,0 0,-25.10514 4.27113,0 0,6.19477 10.43331,0 m 0.22823,14.411 0,-9.91164 c -2e-5,-0.15213 -0.0761,-0.22821 -0.22823,-0.22823 l -10.20508,0 c -0.15216,2e-5 -0.22823,0.0761 -0.22823,0.22823 l 0,9.91164 c 0,0.15216 0.0761,0.22824 0.22823,0.22823 l 10.20508,0 c 0.15213,1e-5 0.22821,-0.0761 0.22823,-0.22823" />
      <path
         inkscape:connector-curvature="0"
         id="path3159"
         style="fill:#404042;fill-opacity:1"
         d="m -804.04487,359.80573 0,-18.91037 4.27114,0 0,18.91037 -4.27114,0 m 0,-25.10514 4.27114,0 0,4.30373 -4.27114,0 0,-4.30373" />
    </g>
    <path
       style="font-size:51.94805145px;font-style:normal;font-variant:normal;font-weight:bold;font-stretch:normal;text-align:start;line-height:125%;letter-spacing:0px;word-spacing:0px;writing-mode:lr-tb;text-anchor:start;fill:#404042;fill-opacity:1;stroke:none;font-family:Orbitron;-inkscape-font-specification:Orbitron Bold"
       inkscape:connector-curvature="0"
       d="m 410.54179,557.96532 -32.16667,0 c -0.25926,10e-5 -0.38889,0.12972 -0.38888,0.38895 l 0,24.55552 c -1e-5,0.25923 0.12962,0.38885 0.38888,0.38885 l 32.16667,0 0,7.33339 -32.16667,0 c -2.14815,0 -3.98148,-0.7408 -5.49999,-2.2222 -1.48149,-1.51861 -2.22223,-3.35185 -2.22223,-5.50004 l 0,-24.55552 c 0,-2.14819 0.74074,-3.96293 2.22223,-5.44443 1.51851,-1.51851 3.35184,-2.27781 5.49999,-2.27781 l 32.16667,0 0,7.33329"
       id="path3161" />
    <path
       style="font-size:51.94805145px;font-style:normal;font-variant:normal;font-weight:bold;font-stretch:normal;text-align:start;line-height:125%;letter-spacing:0px;word-spacing:0px;writing-mode:lr-tb;text-anchor:start;fill:#ff8800;fill-opacity:1;stroke:none;font-family:Orbitron;-inkscape-font-specification:Orbitron Bold"
       d="m 540.47435,550.62789 7.77778,0 -14.55555,40 -5.77778,0 -10.3889,-28.38894 -10.38888,28.38894 -5.72222,0 -14.55556,-40 7.77778,0 9.66667,26.38886 9.66666,-26.38886 7.16667,0 9.66667,26.38886 9.66666,-26.38886"
       id="path3163"
       inkscape:connector-curvature="0" />
    <g
       id="g3165"
       style="font-size:32.25769424px;font-style:normal;font-weight:bold;line-height:125%;letter-spacing:0px;word-spacing:0px;fill:#ff8800;fill-opacity:1;stroke:none;font-family:orbitron;-inkscape-font-specification:orbitron"
       transform="matrix(1.0694444,0,0,1.0694444,1320.9305,205.73013)">
      <path
         inkscape:connector-curvature="0"
         id="path3167"
         style="fill:#ff8800;fill-opacity:1"
         d="m -712.66923,341.16755 c 1.22577,2e-5 2.26877,0.44087 3.12899,1.32257 0.88169,0.86022 1.32255,1.90322 1.32257,3.12899 l 0,7.03218 -14.77402,0 0,2.77416 c -1e-5,0.15054 0.0753,0.22581 0.2258,0.22581 l 14.54822,0 0,4.22575 -14.54822,0 c -1.2258,0 -2.27955,-0.4301 -3.16125,-1.2903 -0.86021,-0.88171 -1.29031,-1.93546 -1.29031,-3.16126 l 0,-9.80634 c 0,-1.22577 0.4301,-2.26877 1.29031,-3.12899 0.8817,-0.8817 1.93545,-1.32255 3.16125,-1.32257 l 10.09666,0 m -10.32246,7.22573 10.54826,0 0,-2.77417 c -10e-6,-0.15052 -0.0753,-0.22579 -0.2258,-0.2258 l -10.09666,0 c -0.15054,1e-5 -0.22581,0.0753 -0.2258,0.2258 l 0,2.77417" />
      <path
         inkscape:connector-curvature="0"
         id="path3169"
         style="fill:#ff8800;fill-opacity:1"
         d="m -690.26928,341.16755 c 1.22577,2e-5 2.26877,0.44087 3.12899,1.32257 0.88169,0.86022 1.32255,1.90322 1.32257,3.12899 l 0,9.80634 c -2e-5,1.2258 -0.44088,2.27955 -1.32257,3.16126 -0.86022,0.8602 -1.90322,1.2903 -3.12899,1.2903 l -14.54822,0 0,-24.83842 4.22576,0 0,6.12896 10.32246,0 m 0.2258,14.2579 0,-9.80634 c -10e-6,-0.15052 -0.0753,-0.22579 -0.2258,-0.2258 l -10.09666,0 c -0.15054,1e-5 -0.22581,0.0753 -0.2258,0.2258 l 0,9.80634 c -1e-5,0.15054 0.0753,0.22581 0.2258,0.22581 l 10.09666,0 c 0.15052,0 0.22579,-0.0753 0.2258,-0.22581" />
    </g>
    <g
       transform="translate(155.71498,208.28104)"
       id="g3408">
      <path
         sodipodi:nodetypes="ccccc"
         inkscape:connector-curvature="0"
         id="path3410"
         d="m 196.89624,349.49384 -8.06851,4.8684 0,10.62195 8.06851,-4.8684 z"
         style="fill:#ff8800;fill-opacity:1;stroke:none" />
      <path
         sodipodi:nodetypes="ccccc"
         inkscape:connector-curvature="0"
         style="fill:#ff8800;fill-opacity:1;stroke:none"
         d="m 188.28608,343.70506 8.00049,4.84516 -8.00049,4.78822 -8.00051,-4.78822 z"
         id="path3412" />
      <path
         style="fill:#ff8800;fill-opacity:1;stroke:none"
         d="m 187.69852,366.86825 -8.06851,4.8684 0,10.62195 8.06851,-4.8684 z"
         id="path3414"
         inkscape:connector-curvature="0"
         sodipodi:nodetypes="ccccc" />
      <path
         id="path3416"
         d="m 179.08836,361.07947 8.00049,4.84516 -8.00049,4.78822 -8.00051,-4.78822 z"
         style="fill:#ff8800;fill-opacity:1;stroke:none"
         inkscape:connector-curvature="0"
         sodipodi:nodetypes="ccccc" />
      <path
         sodipodi:nodetypes="ccccc"
         inkscape:connector-curvature="0"
         id="path3418"
         d="m 206.05702,366.86825 -8.06851,4.8684 0,10.62195 8.06851,-4.8684 z"
         style="fill:#ff8800;fill-opacity:1;stroke:none" />
      <path
         sodipodi:nodetypes="cccccc"
         inkscape:connector-curvature="0"
         id="path3420"
         d="m 197.41294,361.10753 -8.00027,4.84524 8.00686,4.78602 c 0.0406,-0.0455 6.64235,-2.44836 7.44329,-10.21298 -2.81627,1.46 -3.71023,2.32033 -7.44988,0.58175 z"
         style="fill:#404042;fill-opacity:1;stroke:none" />
    </g>
  </g>
</svg>
