<svg width="1803" height="360" viewBox="0 0 1803 360" fill="none" xmlns="http://www.w3.org/2000/svg">
<path d="M342.961 112.792H192.69C171.06 112.792 151.516 125.701 143.027 145.597L133.678 168.187C139.651 167.26 145.737 166.785 151.888 166.785H321.362L294.365 231.577H151.888C133.008 231.577 108.087 239.677 95.1289 262.895L74.9902 309.993L71.8125 317.672H0L83.4336 120.169C102.109 76.3995 145.103 48 192.69 48H371.038L342.961 112.792Z" fill="black"/>
<path d="M522.8 90.8H671.6V126.8H563.6V179.6H652.4V213.2H563.6V302H522.8V90.8ZM683.708 258.5C683.708 242.1 688.908 230 699.308 222.2C709.908 214.2 723.908 209.7 741.308 208.7L756.608 208.1C770.208 207.7 779.908 206.8 785.708 205.4C791.508 204 794.308 200.6 794.108 195.2C793.908 188.4 791.608 182.9 787.208 178.7C782.808 174.5 774.508 172.4 762.308 172.4C749.908 172.4 741.108 174.6 735.908 179C730.708 183.2 727.508 189 726.308 196.4H688.508C691.108 177.6 699.408 163.7 713.408 154.7C727.408 145.7 744.108 141.2 763.508 141.2C784.708 141.2 801.508 146.4 813.908 156.8C826.308 167.2 832.508 186.4 832.508 214.4V302H794.108V290.9C794.108 284.9 795.608 279.1 798.608 273.5C799.408 271.5 799.808 270 799.808 269C799.808 267.8 799.308 267 798.308 266.6L797.108 266.3C795.908 266.3 795.008 266.9 794.408 268.1C793.808 269.1 793.508 269.7 793.508 269.9C784.108 292.9 765.908 304.4 738.908 304.4C729.108 304.4 719.908 302.4 711.308 298.4C702.908 294.4 696.208 288.9 691.208 281.9C686.208 274.9 683.708 267.1 683.708 258.5ZM794.108 220.4C790.108 224.8 784.808 227.9 778.208 229.7C771.808 231.3 761.708 232.8 747.908 234.2C739.308 235.2 732.808 237.5 728.408 241.1C724.208 244.5 722.108 249.6 722.108 256.4C722.108 262.2 724.308 266.9 728.708 270.5C733.308 274.1 739.208 275.9 746.408 275.9C749.008 275.9 751.008 275.8 752.408 275.6C764.208 274 774.008 268.9 781.808 260.3C789.808 251.7 793.908 238.4 794.108 220.4ZM889.672 248.6C889.872 255.8 892.572 261.9 897.772 266.9C903.172 271.9 912.172 274.4 924.772 274.4C936.372 274.4 944.672 272.7 949.672 269.3C954.872 265.9 957.472 261.3 957.472 255.5C957.472 251.7 955.772 248.8 952.372 246.8C949.172 244.8 944.672 243.3 938.872 242.3C933.072 241.1 923.972 239.8 911.572 238.4C889.972 235.8 875.372 230 867.772 221C860.372 211.8 856.672 201.3 856.672 189.5C856.672 180.7 859.272 172.7 864.472 165.5C869.672 158.1 877.372 152.2 887.572 147.8C897.772 143.4 910.072 141.2 924.472 141.2C944.672 141.2 960.572 146 972.172 155.6C983.772 165 990.072 177.2 991.072 192.2H953.272C952.672 186.2 950.072 181.2 945.472 177.2C941.072 173.2 933.772 171.2 923.572 171.2C904.572 171.2 895.072 176.6 895.072 187.4C895.072 190.4 895.772 192.9 897.172 194.9C898.772 196.9 902.072 198.7 907.072 200.3C912.072 201.9 919.472 203.2 929.272 204.2C950.272 206.4 966.572 211.3 978.172 218.9C989.972 226.3 995.872 237.5 995.872 252.5C995.872 269.1 989.572 281.9 976.972 290.9C964.572 299.9 946.772 304.4 923.572 304.4C901.172 304.4 883.772 299.5 871.372 289.7C859.172 279.7 852.672 266 851.872 248.6H889.672ZM1070.42 177.2V249.5C1070.42 255.9 1070.62 260.3 1071.02 262.7C1071.62 265.1 1072.92 266.7 1074.92 267.5C1077.12 268.1 1081.12 268.4 1086.92 268.4H1113.62V302H1078.82C1067.82 302 1058.92 300.6 1052.12 297.8C1045.32 294.8 1040.22 289.8 1036.82 282.8C1033.62 275.8 1032.02 266 1032.02 253.4V177.2H1003.22V143.6H1032.02V100.4H1070.42V143.6H1113.62V177.2H1070.42ZM1213.23 90.8L1257.03 250.4C1258.23 254.8 1258.83 261.6 1258.83 270.8C1258.83 273.2 1260.03 274.4 1262.43 274.4C1264.83 274.4 1266.03 273.2 1266.03 270.8C1266.03 261.6 1266.63 254.8 1267.83 250.4L1311.63 90.8H1382.43V302H1341.63V143.9C1341.63 139.5 1342.03 135.5 1342.83 131.9C1343.63 128.3 1344.93 123.9 1346.73 118.7C1346.93 118.3 1347.03 117.7 1347.03 116.9C1347.03 114.9 1346.03 113.8 1344.03 113.6H1343.43C1342.03 113.6 1341.03 114.5 1340.43 116.3L1287.63 302H1237.23L1184.43 116.3C1183.83 114.5 1182.83 113.6 1181.43 113.6C1178.23 113.6 1177.13 115.3 1178.13 118.7C1179.93 123.9 1181.23 128.3 1182.03 131.9C1182.83 135.5 1183.23 139.5 1183.23 143.9V302H1142.43V90.8H1213.23ZM1404.12 196.4C1404.12 176.2 1408.22 157.9 1416.42 141.5C1424.82 125.1 1436.82 112.2 1452.42 102.8C1468.22 93.2 1486.92 88.4 1508.52 88.4C1529.12 88.4 1546.52 92.6 1560.72 101C1575.12 109.2 1585.92 119.6 1593.12 132.2C1600.52 144.6 1604.72 157.2 1605.72 170H1565.22C1564.22 162.6 1561.52 155.4 1557.12 148.4C1552.72 141.4 1546.42 135.7 1538.22 131.3C1530.22 126.7 1520.52 124.4 1509.12 124.4C1495.92 124.4 1484.42 127.6 1474.62 134C1465.02 140.4 1457.62 149.1 1452.42 160.1C1447.42 170.9 1444.92 183 1444.92 196.4C1444.92 209.8 1447.42 222 1452.42 233C1457.62 243.8 1465.02 252.4 1474.62 258.8C1484.42 265.2 1495.92 268.4 1509.12 268.4C1520.52 268.4 1530.22 266.2 1538.22 261.8C1546.42 257.2 1552.72 251.4 1557.12 244.4C1561.52 237.4 1564.22 230.2 1565.22 222.8H1605.72C1604.72 235.6 1600.52 248.3 1593.12 260.9C1585.92 273.3 1575.12 283.7 1560.72 292.1C1546.52 300.3 1529.12 304.4 1508.52 304.4C1486.92 304.4 1468.22 299.7 1452.42 290.3C1436.82 280.7 1424.82 267.7 1416.42 251.3C1408.22 234.9 1404.12 216.6 1404.12 196.4ZM1713.09 90.8C1741.09 90.8 1761.79 97.1 1775.19 109.7C1788.59 122.3 1795.29 138.4 1795.29 158C1795.29 170.2 1792.19 181.4 1785.99 191.6C1779.99 201.8 1771.09 210 1759.29 216.2C1747.69 222.2 1733.89 225.2 1717.89 225.2H1668.09V302H1627.29V90.8H1713.09ZM1717.59 191.6C1728.79 191.6 1737.69 188.6 1744.29 182.6C1751.09 176.4 1754.49 168.6 1754.49 159.2C1754.49 149 1751.19 141.1 1744.59 135.5C1738.19 129.7 1729.19 126.8 1717.59 126.8H1668.09V191.6H1717.59Z" fill="black"/>
</svg>
