<svg width="380" height="89" viewBox="0 0 380 89" fill="none" xmlns="http://www.w3.org/2000/svg">
<path d="M115.18 46.5465H126.67V52.092H108.185V17.22H115.18V46.5465Z" fill="#FFF"/>
<path d="M143.406 52.5417C140.742 52.5417 138.343 51.9588 136.212 50.7931C134.08 49.594 132.398 47.9121 131.166 45.7471C129.967 43.5822 129.367 41.0842 129.367 38.2532C129.367 35.4221 129.984 32.9241 131.216 30.7592C132.482 28.5942 134.197 26.9289 136.362 25.7632C138.527 24.5641 140.941 23.9646 143.606 23.9646C146.27 23.9646 148.685 24.5641 150.85 25.7632C153.015 26.9289 154.714 28.5942 155.946 30.7592C157.212 32.9241 157.844 35.4221 157.844 38.2532C157.844 41.0842 157.195 43.5822 155.896 45.7471C154.63 47.9121 152.898 49.594 150.7 50.7931C148.535 51.9588 146.104 52.5417 143.406 52.5417ZM143.406 46.4466C144.672 46.4466 145.854 46.1468 146.953 45.5473C148.086 44.9145 148.985 43.9819 149.651 42.7495C150.317 41.5172 150.65 40.0184 150.65 38.2532C150.65 35.6219 149.951 33.6069 148.552 32.208C147.186 30.7758 145.504 30.0597 143.506 30.0597C141.508 30.0597 139.826 30.7758 138.46 32.208C137.128 33.6069 136.462 35.6219 136.462 38.2532C136.462 40.8844 137.111 42.9161 138.41 44.3483C139.742 45.7471 141.408 46.4466 143.406 46.4466Z" fill="#FFF"/>
<path d="M161.177 38.2532C161.177 35.3888 161.759 32.8908 162.925 30.7592C164.091 28.5942 165.706 26.9289 167.771 25.7632C169.836 24.5641 172.201 23.9646 174.866 23.9646C178.296 23.9646 181.127 24.8306 183.359 26.5625C185.624 28.2612 187.139 30.6593 187.905 33.7568H180.361C179.961 32.5577 179.279 31.6251 178.313 30.959C177.38 30.2596 176.214 29.9099 174.816 29.9099C172.817 29.9099 171.235 30.6426 170.069 32.1081C168.904 33.5403 168.321 35.5886 168.321 38.2532C168.321 40.8844 168.904 42.9327 170.069 44.3982C171.235 45.8304 172.817 46.5465 174.816 46.5465C177.647 46.5465 179.495 45.2808 180.361 42.7495H187.905C187.139 45.7471 185.624 48.1285 183.359 49.8938C181.094 51.659 178.263 52.5417 174.866 52.5417C172.201 52.5417 169.836 51.9588 167.771 50.7931C165.706 49.594 164.091 47.9287 162.925 45.7971C161.759 43.6322 161.177 41.1175 161.177 38.2532Z" fill="#FFF"/>
<path d="M191.231 38.1532C191.231 35.3555 191.78 32.8741 192.879 30.7092C194.012 28.5443 195.527 26.879 197.426 25.7132C199.357 24.5475 201.506 23.9646 203.87 23.9646C205.935 23.9646 207.734 24.381 209.266 25.2136C210.831 26.0463 212.08 27.0954 213.013 28.3611V24.4143H220.057V52.092H213.013V48.0453C212.114 49.3442 210.865 50.4267 209.266 51.2927C207.701 52.1253 205.885 52.5417 203.82 52.5417C201.489 52.5417 199.357 51.9422 197.426 50.7431C195.527 49.5441 194.012 47.8621 192.879 45.6972C191.78 43.4989 191.231 40.9843 191.231 38.1532ZM213.013 38.2532C213.013 36.5545 212.68 35.1057 212.014 33.9066C211.348 32.6743 210.448 31.7417 209.316 31.1089C208.184 30.4428 206.968 30.1097 205.669 30.1097C204.37 30.1097 203.171 30.4261 202.072 31.0589C200.973 31.6918 200.073 32.6243 199.374 33.8567C198.708 35.0557 198.375 36.4879 198.375 38.1532C198.375 39.8186 198.708 41.284 199.374 42.5497C200.073 43.782 200.973 44.7313 202.072 45.3974C203.204 46.0635 204.403 46.3966 205.669 46.3966C206.968 46.3966 208.184 46.0802 209.316 45.4474C210.448 44.7812 211.348 43.8487 212.014 42.6496C212.68 41.4173 213.013 39.9518 213.013 38.2532Z" fill="#FFF"/>
<path d="M233.883 15.1217V52.092H226.889V15.1217H233.883Z" fill="#FFF"/>
<path d="M252.834 52.4417C250.402 52.4417 248.204 52.0254 246.239 51.1928C244.307 50.3601 242.775 49.161 241.643 47.5956C240.51 46.0302 239.928 44.1817 239.894 42.0501H247.388C247.488 43.4823 247.988 44.6147 248.887 45.4474C249.82 46.28 251.085 46.6964 252.684 46.6964C254.316 46.6964 255.598 46.3133 256.531 45.5473C257.463 44.7479 257.93 43.7154 257.93 42.4498C257.93 41.4173 257.613 40.568 256.98 39.9018C256.348 39.2357 255.548 38.7194 254.582 38.3531C253.65 37.9534 252.351 37.5204 250.686 37.0541C248.421 36.388 246.572 35.7385 245.14 35.1057C243.741 34.4395 242.525 33.457 241.493 32.158C240.494 30.8258 239.994 29.0605 239.994 26.8623C239.994 24.7973 240.51 22.9987 241.543 21.4666C242.575 19.9345 244.024 18.7688 245.889 17.9694C247.755 17.1368 249.886 16.7205 252.284 16.7205C255.881 16.7205 258.796 17.6031 261.027 19.3683C263.292 21.1003 264.541 23.5316 264.774 26.6625H257.08C257.014 25.4634 256.498 24.4809 255.532 23.7148C254.599 22.9155 253.35 22.5158 251.785 22.5158C250.419 22.5158 249.32 22.8655 248.487 23.5649C247.688 24.2644 247.288 25.2802 247.288 26.6125C247.288 27.5451 247.588 28.3278 248.188 28.9606C248.82 29.5601 249.586 30.0597 250.486 30.4594C251.418 30.8258 252.717 31.2588 254.383 31.7584C256.647 32.4245 258.496 33.0906 259.928 33.7568C261.36 34.4229 262.593 35.4221 263.625 36.7544C264.658 38.0866 265.174 39.8352 265.174 42.0001C265.174 43.8653 264.691 45.5972 263.725 47.196C262.759 48.7947 261.344 50.077 259.478 51.0429C257.613 51.9755 255.398 52.4417 252.834 52.4417Z" fill="#FFF"/>
<path d="M279.381 30.1597V43.5489C279.381 44.4815 279.598 45.1643 280.031 45.5972C280.497 45.9969 281.263 46.1968 282.329 46.1968H285.576V52.092H281.18C275.285 52.092 272.337 49.2277 272.337 43.4989V30.1597H269.04V24.4143H272.337V17.5698H279.381V24.4143H285.576V30.1597H279.381Z" fill="#FFF"/>
<path d="M288.808 38.1532C288.808 35.3555 289.358 32.8741 290.457 30.7092C291.59 28.5443 293.105 26.879 295.003 25.7132C296.935 24.5475 299.083 23.9646 301.448 23.9646C303.513 23.9646 305.312 24.381 306.844 25.2136C308.409 26.0463 309.658 27.0954 310.591 28.3611V24.4143H317.635V52.092H310.591V48.0453C309.692 49.3442 308.443 50.4267 306.844 51.2927C305.279 52.1253 303.463 52.5417 301.398 52.5417C299.067 52.5417 296.935 51.9422 295.003 50.7431C293.105 49.5441 291.59 47.8621 290.457 45.6972C289.358 43.4989 288.808 40.9843 288.808 38.1532ZM310.591 38.2532C310.591 36.5545 310.258 35.1057 309.592 33.9066C308.926 32.6743 308.026 31.7417 306.894 31.1089C305.761 30.4428 304.546 30.1097 303.247 30.1097C301.948 30.1097 300.749 30.4261 299.65 31.0589C298.551 31.6918 297.651 32.6243 296.952 33.8567C296.286 35.0557 295.953 36.4879 295.953 38.1532C295.953 39.8186 296.286 41.284 296.952 42.5497C297.651 43.782 298.551 44.7313 299.65 45.3974C300.782 46.0635 301.981 46.3966 303.247 46.3966C304.546 46.3966 305.761 46.0802 306.894 45.4474C308.026 44.7812 308.926 43.8487 309.592 42.6496C310.258 41.4173 310.591 39.9518 310.591 38.2532Z" fill="#FFF"/>
<path d="M322.668 38.2532C322.668 35.3888 323.251 32.8908 324.417 30.7592C325.582 28.5942 327.198 26.9289 329.263 25.7632C331.328 24.5641 333.692 23.9646 336.357 23.9646C339.788 23.9646 342.619 24.8306 344.85 26.5625C347.115 28.2612 348.63 30.6593 349.396 33.7568H341.853C341.453 32.5577 340.77 31.6251 339.804 30.959C338.872 30.2596 337.706 29.9099 336.307 29.9099C334.309 29.9099 332.727 30.6426 331.561 32.1081C330.395 33.5403 329.812 35.5886 329.812 38.2532C329.812 40.8844 330.395 42.9327 331.561 44.3982C332.727 45.8304 334.309 46.5465 336.307 46.5465C339.138 46.5465 340.987 45.2808 341.853 42.7495H349.396C348.63 45.7471 347.115 48.1285 344.85 49.8938C342.585 51.659 339.754 52.5417 336.357 52.5417C333.692 52.5417 331.328 51.9588 329.263 50.7931C327.198 49.594 325.582 47.9287 324.417 45.7971C323.251 43.6322 322.668 41.1175 322.668 38.2532Z" fill="#FFF"/>
<path d="M370.907 52.092L361.515 40.3015V52.092H354.52V15.1217H361.515V36.1548L370.807 24.4143H379.9L367.71 38.3031L380 52.092H370.907Z" fill="#FFF"/>
<path fill-rule="evenodd" clip-rule="evenodd" d="M76.2983 61.8727C77.3006 61.8727 77.8025 63.0845 77.0938 63.7932L52.7163 88.1688C52.0076 88.8775 50.7957 88.3756 50.7957 87.3734L50.7957 62.9977C50.7957 62.3764 51.2994 61.8727 51.9208 61.8727L76.2983 61.8727ZM1.12732 38.9036C0.12502 38.9036 -0.376933 37.6918 0.331807 36.9832L24.7093 12.6075C25.418 11.8988 26.6298 12.4007 26.6298 13.4029L26.6298 37.7786C26.6298 38.3999 26.1261 38.9036 25.5048 38.9036L1.12732 38.9036Z" fill="url(#paint0_linear_20_3)"/>
<path d="M54.1934 34.9029L86.8489 34.9029C87.4702 34.9029 87.9739 34.3993 87.9739 33.778L87.9739 1.12488C87.9739 0.503582 87.4702 -8.01527e-05 86.8489 -8.0207e-05L54.1934 -8.30618e-05C53.5721 -8.31162e-05 53.0684 0.503579 53.0684 1.12487L53.0684 33.778C53.0684 34.3993 53.5721 34.9029 54.1934 34.9029Z" fill="url(#paint1_linear_20_3)"/>
<path d="M78.3818 56.248L33.3801 56.248C32.7588 56.248 32.2551 55.7443 32.2551 55.123L32.2551 10.1246C32.2551 9.50333 32.7588 8.99967 33.3801 8.99967L46.3181 8.99967C46.9394 8.99967 47.4431 9.50333 47.4431 10.1246L47.4431 39.3736C47.4431 39.9949 47.9468 40.4986 48.5682 40.4986L78.3818 40.4986C79.0031 40.4986 79.5068 41.0022 79.5068 41.6235L79.5068 55.123C79.5068 55.7443 79.0031 56.248 78.3818 56.248Z" fill="url(#paint2_linear_20_3)"/>
<defs>
<linearGradient id="paint0_linear_20_3" x1="77.5035" y1="12.0444" x2="13.9516" y2="74.968" gradientUnits="userSpaceOnUse">
<stop stop-color="#4D29B4"/>
<stop offset="1" stop-color="#836FFF"/>
</linearGradient>
<linearGradient id="paint1_linear_20_3" x1="50.0107" y1="36.657" x2="93.9964" y2="-6.54887" gradientUnits="userSpaceOnUse">
<stop stop-color="#70FFE5"/>
<stop offset="1" stop-color="#6295E1"/>
</linearGradient>
<linearGradient id="paint2_linear_20_3" x1="73.8377" y1="19.3759" x2="32.4705" y2="58.6544" gradientUnits="userSpaceOnUse">
<stop offset="0.00747511" stop-color="#654FEC"/>
<stop offset="1" stop-color="#71B2FF"/>
</linearGradient>
</defs>
</svg>