<svg height="313" viewBox="0 0 304 313" width="304" xmlns="http://www.w3.org/2000/svg"><g fill="none" fill-rule="nonzero" transform="translate(6 5)"><g opacity=".9"><path d="m182.505214 197.054156c-.648889.360405-1.361508.531434-2.068333.531434-1.123968 0-2.236349-.443848-3.070635-1.295444l-30.092222-30.737337c-.822699-.840352-1.274603-1.976602-1.274603-3.143034 0 1.166432-.451905 2.302682-1.274604 3.143034l-30.092222 30.737337c-.834285.851596-1.946666 1.295444-3.070635 1.295444-.706825 0-1.419444-.171029-2.068333-.531434l-75.0214358-41.534672.000031 83.849332c-.0005793.153868.0069524.306551.0220159.457459.006373.064506.0185397.127237.0272302.190559.0110079.077525.0196984.155051.0347619.231393.0185396.097054.0440317.190558.068365.284062.0115873.043793.0202778.087586.0330238.130787.0283889.095871.0625715.188192.096754.281104.0150635.041425.0278095.083443.0446111.124869.0336032.083443.0724207.163928.1106588.245004.0237539.049711.0451904.099422.0706825.149133.0347619.065689.073.129603.1106587.192925.0359207.060955.0701032.122502.1083413.182866.0318651.049711.0677857.095871.1019683.143214.049246.070424.0979126.139664.1512142.207129.0295477.037284.0625715.071608.0932778.107707.0614127.072791.1228254.144399.188873.212455.0347619.0361.0718413.068057.1077619.101789.0660477.063915.1309365.127237.2010397.186417.0677857.057996.139627.109482.2103095.162744.0417143.031365.0805318.064506.1234048.094687.1245635.085811.2537619.165111.3870159.239086l107.1686345 59.171402c.645413.356262 1.355715.533801 2.066596.533801s1.421762-.178131 2.066016-.533801l107.168634-59.171402c.133254-.073975.262453-.153867.387016-.239086.042873-.030181.08227-.063322.123405-.094687.071262-.053262.143103-.10534.21031-.162744.070103-.05918.134992-.122502.201039-.186417.035342-.033732.073-.065689.107183-.101789.066047-.068056.12746-.139664.188873-.212455.030706-.036099.06373-.070423.093278-.107707.053301-.066873.101968-.136113.151214-.207129.034182-.047343.070103-.093503.101968-.143214.038238-.060364.072421-.121319.108341-.182866.037659-.063914.076477-.127236.110659-.192925.025492-.049711.046929-.099422.070683-.149133.038238-.081076.077055-.161561.110658-.245004.016802-.041426.029548-.083444.044612-.124869.034182-.092321.068365-.185233.096753-.281104.012747-.042609.021437-.086994.033024-.130787.024334-.093504.049826-.187008.068365-.284062.015064-.076342.023754-.153868.034762-.231393.008691-.063322.021437-.126053.02723-.190559.015064-.1515.022596-.304183.022016-.457459l.000031-83.849332z" fill="#e2ae83"/><path d="m143.722516 39.0846328c1.205079-.6622207 2.033571-1.8759961 2.230555-3.2608008.028969-.212455.04635-.4255019.04635-.6391406 0 .2136387.017381.4266856.046349.6332227.196984 1.3848047 1.025476 2.5926621 2.230555 3.2608007l107.18254 59.1796875c.654683.3615879 1.361508.5326172 2.068333.5326172-.706825 0-1.41365.1781309-2.068333.5385352l-107.18254 59.1796873c-1.205079.663404-2.033571 1.875996-2.230555 3.260801-.028968.213639-.046349.426686-.046349.639141 0-.212455-.017381-.425502-.04635-.639141-.196984-1.384805-1.025476-2.597397-2.230555-3.260801l-107.1825398-59.1796873c-.5735714-.3130606-1.1876984-.4911914-1.8018254-.5326172.614127-.0414258 1.228254-.218373 1.8018254-.5326172z" fill="#c48d69"/><path d="m291.628627 62.9707383c.196984 1.3848047-.249127 2.7808535-1.216667 3.7750722l-29.802539 30.7331954c-.834286.8634316-1.952461 1.3131972-3.082223 1.3131972-.706825 0-1.41365-.1710293-2.068333-.5326172l-107.18254-59.1796875c-1.205079-.6681386-2.033571-1.8759961-2.230555-3.2608007-.028968-.207129-.046349-.419584-.046349-.6332227 0-.005918 0-.005918 0-.0118359 0-1.1652481.451904-2.3026817 1.274603-3.1359317l30.092222-30.73852146c1.355714-1.39072266 3.447222-1.69786524 5.138968-.76282617l106.892857 59.17968753c1.20508.6616289 2.027778 1.8694863 2.230556 3.254291z" fill="#d39c72"/><path d="m290.41196 130.84333c.96754.994219 1.413651 2.391451 1.216667 3.776256-.202778 1.378887-1.025476 2.58556-2.230556 3.254883l-106.892857 59.179687c-.648889.360405-1.361508.531434-2.068333.531434-1.123968 0-2.236349-.443848-3.070635-1.295444l-30.092222-30.737337c-.822699-.840352-1.274603-1.976602-1.274603-3.143034 0-.212455.017381-.425502.046349-.63914.196984-1.384805 1.025476-2.597397 2.230555-3.260801l107.18254-59.1796875c.654683-.3604043 1.361508-.5385352 2.068333-.5385352 1.129762 0 2.247937.4556836 3.082223 1.3143807z" fill="#f2c397"/><g fill="#e2ae83"><path d="m290.41196 130.84333-29.802539-30.737338c-.834286-.8586971-1.952461-1.3143807-3.082223-1.3143807-.706825 0-1.41365.1781309-2.068333.5385352l-11.316159 6.2517425c.654683-.360405 1.361508-.538535 2.068334-.538535 1.129762 0 2.247936.455683 3.082222 1.31438l29.80254 30.737338c.967539.994219 1.41423 2.391451 1.216666 3.776256-.202778 1.378887-1.025476 2.585561-2.230555 3.254883l11.316158-6.251742c1.20508-.669323 2.027778-1.875996 2.230556-3.254883.196984-1.384805-.249127-2.782037-1.216667-3.776256z"/><path d="m145.999421 35.1734473v.0118359c0 .2136387-.017381.4266855-.04635.6391406-.196984 1.3848047-1.025476 2.5985801-2.230555 3.2608008l-107.1825398 59.1796875c-.5735714.3142441-1.1876984.4911914-1.8018254.5326172-.1216667-.005918-.249127-.005918-.3707937 0-1.095-.0230801-2.1668254-.4728457-2.9779365-1.3072793l-29.80253965-30.7391133c-.96753968-.9942187-1.41365079-2.3902676-1.21666666-3.7750722.20277777-1.3788868 1.02547619-2.5867442 2.23055555-3.2548829l106.89285716-59.17968746c1.691746-.93503906 3.783254-.62197852 5.138968.76282617l30.092222 30.73852149c.822699.8409434 1.26881 1.9712754 1.274604 3.1306055z"/></g><path d="m145.953071 161.770635c.028969.213638.04635.426685.04635.63914 0 1.166432-.451905 2.302682-1.274604 3.143034l-30.092222 30.737337c-.834285.851596-1.946666 1.295444-3.070635 1.295444-.706825 0-1.419444-.171029-2.068333-.531434l-106.89285716-59.179687c-1.20507936-.669323-2.02777778-1.875996-2.23055555-3.254883-.19698413-1.384805.24912698-2.782037 1.21666666-3.776256l29.80253965-30.737338c.8111111-.8344334 1.8829365-1.284199 2.9779365-1.3084627.0347619.005918.0695239.005918.1042858.005918.0869047 0 .1738095 0 .2665079-.005918.614127.0414258 1.228254.2195566 1.8018254.5326172l107.1825398 59.1796875c1.205079.663404 2.033571 1.875996 2.230555 3.260801z" fill="#ffd2a6"/><path d="m34.7381508 98.7975293c-.0926984.005918-.1796032.005918-.2665079.005918-.0347619 0-.0695239 0-.1042858-.005918.1216667-.005918.249127-.005918.3707937 0z" fill="#e2ae83"/><path d="m256.271714 156.214254c-.056777.111258-.115293.152683-.174968.097055h-.000579l-15.952238 8.831976v83.842822c0 .153868-.006953.306551-.022016.457459-.006373.064506-.01854.127237-.02723.190559-.011008.077525-.019699.155051-.034762.231393-.01854.097054-.044032.190558-.068365.284062-.011588.043793-.020278.087586-.033024.130787-.028389.095871-.062572.188192-.096754.281104-.015064.041425-.02781.083443-.044611.124869-.033604.083443-.072421.163928-.110659.245004-.023175.049711-.045191.099422-.070683.149133-.034762.065689-.073.129603-.110658.192925-.035342.061547-.070104.122502-.108342.182866-.031865.049711-.067785.095871-.101968.143214-.049246.070424-.097913.139664-.151214.207129-.029548.037284-.062572.071608-.093278.107707-.061992.072791-.122825.144399-.188873.212455-.034762.0361-.071841.068057-.107182.10179-.066048.063322-.130937.127236-.20104.185824-.067786.057996-.139627.110074-.21031.162744-.041714.031365-.080531.064506-.123404.094687-.028389.018938-.059096.035508-.087485.054446l17.083159-9.432651c.133254-.073974.262453-.153867.387016-.239086.042873-.030181.08227-.063322.123405-.094687.071262-.053262.143103-.10534.210309-.162744.070103-.05918.134992-.122502.20104-.186416.035341-.033733.073-.06569.107183-.101789.066047-.068057.12746-.139664.188873-.212455.030706-.0361.06373-.070424.093277-.107707.053302-.066874.101969-.136114.151215-.207129.034182-.047344.070103-.093504.101968-.143215.038238-.060364.072421-.121319.108341-.182865.037659-.063915.076476-.127237.110659-.192926.025492-.049711.046928-.099422.070682-.149133.038239-.081076.077056-.161561.110659-.245004.016802-.041426.029548-.083443.044611-.124869.034183-.09232.068365-.185233.096754-.281104.012746-.042609.021437-.086994.033024-.130787.024333-.093504.049825-.187008.068365-.284062.015064-.076342.023754-.153867.034762-.231393.00869-.063322.021437-.126053.02723-.190558.015064-.1515.022595-.304184.022016-.457459l.000031-83.848741z" fill="#d39c72"/><path d="m144.724817 165.552809-30.092222 30.737337c-.834285.851596-1.946666 1.295444-3.070635 1.295444-.706825 0-1.419444-.171029-2.068333-.531434l-75.0214358-41.534672.000031 83.849332c-.0005793.153868.0069524.306551.0220159.457459.006373.064506.0185397.127237.0272302.190559.0110079.077525.0196984.155051.0347619.231393.0185396.097054.0440317.190558.068365.284062.0115873.043793.0202778.087586.0330238.130787.0283889.095871.0625715.188192.096754.281104.0150635.041425.0278095.083443.0446111.124869.0336032.083443.0724207.163928.1106588.245004.0237539.049711.0451904.099422.0706825.149133.0347619.065689.073.129603.1106587.192925.0359207.060955.0701032.122502.1083413.182866.0318651.049711.0677857.095871.1019683.143214.049246.070424.0979126.139664.1512142.207129.0295477.037284.0625715.071608.0932778.107707.0614127.072791.1228254.144399.188873.212455.0347619.0361.0718413.068057.1077619.101789.0660477.063915.1309365.127237.2010397.186417.0677857.057996.139627.109482.2103095.162744.0417143.031365.0805318.064506.1234048.094687.1245635.085811.2537619.165111.3870159.239086l107.1686345 59.171402c.645413.356262 1.355715.533801 2.066596.533801v-140.589633c0 1.166432-.451905 2.302682-1.274604 3.143034z" fill="#f2c397"/></g><path d="m88.4372318 202.048032c-1.7557268-.990506-3.4778195-1.796536-4.9510164-2.371599-4.3388659-1.686221-5.1124626-.499563-5.1124626 2.497743v4.63032l10.332556 5.869737v1.874178l-15.229757-8.651748c-2.980028-1.6929-5.6371619-1.362643-6.4578475 1.623209-.9417694 3.420064-.9821319 5.836321 0 10.528466.7332343 3.489638 2.5091424 6.717193 5.4891704 8.410093l4.08997 2.323437v-5.7879c0-3.431397 2.9262126-4.952415 6.4040321-2.976729l9.0409865 5.136019c2.852216 1.620292 5.166278.543914 5.166278-2.356926v-9.922115c0-2.818155-2.3813304-6.279396-5.166278-8.336908-1.7624533-1.297504-1.8499046-1.49877-3.6056315-2.489277zm-5.9920209.837201c1.0060486.571518 1.8454913 1.892739 1.8454913 2.933449 0 1.034165-.8394427 1.408187-1.8454913.836669-1.0124562-.575158-1.8454913-1.899284-1.8454913-2.933449 0-1.04071.8330351-1.411827 1.8454913-.836669zm16.4589411 15.476467v5.787795c0 3.431337-2.9262125 4.952296-6.4040321 2.97661l-9.0409865-5.13602c-2.8522159-1.620291-5.166278-.543957-5.166278 2.356831v9.921936c0 2.818104 2.3813322 6.286198 5.166278 8.336811 1.7624551 1.297499 1.8499047 1.505653 3.6056316 2.489268 1.7557268.990507 3.4778195 1.796541 4.9510164 2.371607 4.3388658 1.693125 5.1124626.499606 5.1124626-2.497645v-4.630237l-10.332556-5.869737v-1.874143l15.229757 8.651747c2.980028 1.6929 5.637164 1.362678 6.457847-1.623113.94177-3.419991.982132-5.836205 0-10.528276-.733234-3.48958-2.509142-6.717097-5.48917-8.409997zm-6.3087389 21.864419c1.0124578.575159 1.8454913 1.899286 1.8454913 2.933449 0 1.040711-.8330335 1.411828-1.8454913.83667-1.0060487-.571518-1.8454913-1.892739-1.8454913-2.93345 0-1.034163.8394426-1.408187 1.8454913-.836669z" fill="#503729" opacity=".687221"/></g></svg>