<?xml version="1.0" encoding="utf-8"?>
<!-- Generator: Adobe Illustrator 27.0.0, SVG Export Plug-In . SVG Version: 6.00 Build 0)  -->
<svg version="1.0" id="Layer_1" xmlns="http://www.w3.org/2000/svg" xmlns:xlink="http://www.w3.org/1999/xlink" x="0px" y="0px"
	 viewBox="0 0 154 30" style="enable-background:new 0 0 154 30;" xml:space="preserve" width="154" height="30" >
<style type="text/css">
	.st0{fill:#FFFFFF;}
</style>
<g id="Layer_1_00000047768344360754847990000012721607800634040751_">
	<g>
		<path class="st0" d="M78,13.6h-1.7v6h-1v-6h-1.1v-0.5l1.1-0.4v-0.3c0-1.7,0.8-2.5,2.2-2.5c0.4,0,0.8,0.1,1.3,0.3l-0.3,0.8
			c-0.4-0.1-0.8-0.3-1-0.3c-0.4,0-0.6,0.1-0.9,0.4s-0.3,0.6-0.3,1.3v0.4H78V13.6z"/>
		<path class="st0" d="M85,16.3c0,1.1-0.3,1.9-0.9,2.5c-0.5,0.6-1.3,0.9-2.3,0.9c-0.6,0-1.1-0.1-1.7-0.4c-0.5-0.3-0.9-0.6-1.1-1.3
			c-0.3-0.5-0.4-1.1-0.4-1.9c0-1.1,0.3-1.9,0.8-2.5c0.5-0.6,1.3-0.9,2.3-0.9c0.9,0,1.7,0.3,2.3,0.9C84.7,14.2,85,15.1,85,16.3z
			 M79.7,16.3c0,0.9,0.1,1.5,0.5,1.9c0.4,0.5,0.9,0.6,1.5,0.6c0.6,0,1.1-0.3,1.5-0.6c0.4-0.4,0.5-1.1,0.5-1.9c0-0.9-0.1-1.5-0.5-1.9
			c-0.4-0.4-0.9-0.6-1.5-0.6c-0.6,0-1.1,0.3-1.5,0.6C80,14.7,79.7,15.4,79.7,16.3z"/>
		<path class="st0" d="M89.8,12.7c0.3,0,0.5,0,0.8,0.1l-0.1,0.9c-0.3,0-0.5-0.1-0.8-0.1c-0.5,0-1,0.3-1.4,0.6s-0.6,1-0.6,1.7v3.6h-1
			v-6.7h0.9l0.1,1.3l0,0c0.3-0.4,0.5-0.8,0.9-1C88.9,12.8,89.3,12.7,89.8,12.7z"/>
		<path class="st0" d="M104.8,10.7c0,1.3-0.4,2.3-1.3,2.9c-0.9,0.6-2.2,1-3.7,1h-1.5v5h-1.5V7h3.3C103.1,7,104.8,8.3,104.8,10.7z
			 M98.2,13.3h1.3c1.3,0,2.3-0.3,2.8-0.6c0.6-0.4,0.9-1.1,0.9-2c0-0.9-0.3-1.4-0.8-1.9c-0.5-0.4-1.4-0.6-2.5-0.6h-1.7
			C98.2,8.1,98.2,13.3,98.2,13.3z"/>
		<path class="st0" d="M106.1,10.2h1.5l2,5.3c0.5,1.3,0.8,2.2,0.9,2.7h0.1c0.1-0.3,0.3-0.8,0.5-1.5c0.3-0.8,1-2.9,2.3-6.6h1.5
			l-4.1,10.8c-0.4,1-0.9,1.8-1.4,2.3s-1.1,0.6-2,0.6c-0.4,0-0.9,0-1.3-0.1v-1.1c0.3,0.1,0.6,0.1,1,0.1c1,0,1.7-0.5,2.2-1.7l0.5-1.4
			L106.1,10.2z"/>
		<path class="st0" d="M120.2,18.6c0.3,0,0.5,0,0.8,0s0.4-0.1,0.5-0.1v1.1c-0.1,0.1-0.4,0.1-0.6,0.1s-0.6,0.1-0.8,0.1
			c-1.8,0-2.8-1-2.8-2.9v-5.7h-1.4v-0.6l1.4-0.6l0.6-2h0.9V10h2.8v1.1h-2.9v5.6c0,0.5,0.1,1,0.4,1.3
			C119.3,18.4,119.6,18.6,120.2,18.6z"/>
		<path class="st0" d="M129.7,19.6v-6.1c0-0.8-0.1-1.4-0.5-1.8c-0.4-0.4-0.9-0.5-1.7-0.5c-1,0-1.8,0.3-2.2,0.8
			c-0.5,0.5-0.6,1.4-0.6,2.7v5h-1.4V6.2h1.4v4.1c0,0.5,0,0.9-0.1,1.3h0.1c0.3-0.5,0.6-0.8,1.1-1s1.1-0.4,1.8-0.4
			c1.1,0,2,0.3,2.5,0.8c0.6,0.5,0.9,1.4,0.9,2.7v6.1h-1.4V19.6z"/>
		<path class="st0" d="M141.9,14.9c0,1.5-0.4,2.8-1.1,3.6c-0.8,0.8-1.9,1.3-3.2,1.3c-0.9,0-1.7-0.3-2.3-0.6c-0.6-0.4-1.1-1-1.5-1.7
			c-0.4-0.8-0.5-1.7-0.5-2.5c0-1.5,0.4-2.8,1.1-3.6c0.8-0.8,1.8-1.3,3.2-1.3c1.3,0,2.4,0.4,3.2,1.3
			C141.5,12.2,141.9,13.3,141.9,14.9z M134.8,14.9c0,1.1,0.3,2.2,0.8,2.8c0.5,0.6,1.1,0.9,2.2,0.9c0.9,0,1.7-0.3,2.2-0.9
			c0.5-0.6,0.8-1.5,0.8-2.8c0-1.1-0.3-2.2-0.8-2.8c-0.5-0.6-1.1-0.9-2.2-0.9c-0.9,0-1.7,0.3-2.2,0.9C135,12.7,134.8,13.6,134.8,14.9
			z"/>
		<path class="st0" d="M150.7,19.6v-6.1c0-0.8-0.1-1.4-0.5-1.8c-0.4-0.4-0.9-0.5-1.7-0.5c-1,0-1.7,0.3-2.2,0.8
			c-0.5,0.5-0.6,1.4-0.6,2.7v5h-1.4v-9.4h1.1l0.3,1.3h0.1c0.3-0.5,0.8-0.8,1.3-1.1c0.5-0.4,1.1-0.4,1.8-0.4c1.1,0,2,0.3,2.5,0.8
			c0.6,0.5,0.9,1.4,0.9,2.7v6.1h-1.7V19.6z"/>
	</g>
</g>
<g id="Layer_2_00000147923674847605840940000016886061676261034887_">
	<g id="Layer_1_00000115479941224969138130000004359990092642812304_">
		<g>
			<path class="st0" d="M67.4,15.3c-1.4,0.8-3.3,2.8-3.6,3.1c-1.1,1.1-2.3,2-3.5,2.7h-0.1c-0.1,0-0.1-0.1-0.1-0.2
				c0.1-0.5,0.3-1.1,0.5-1.8c0.2-1,0.4-1.6,0.5-1.9s0.3-1,0.6-2.2s0.7-2.5,1.1-4c0.5-1.7,1.1-2.8,1.7-3.3l0,0c0.1,0,0.1-0.1,0.1-0.2
				s-0.1-0.1-0.2-0.1l-1.3,0.1c-0.6,0-1.1,0.2-1.7,0.3C61.2,7.9,61,8,60.8,8.2c-0.2,0.2-0.3,0.3-0.4,0.4l0,0
				c-0.1,0.2-0.3,0.4-0.3,0.6c-0.1,0.3-0.2,0.5-0.3,0.7c0,0.2-0.1,0.5-0.3,0.9c-0.1,0.4-0.2,0.8-0.3,1c-0.6,1.8-1.4,3.5-2.4,5.1
				c-1,1.7-1.9,2.5-2.6,2.6l0,0c-0.3,0-0.4-0.3-0.5-1c-0.1-1.4,0.2-3.3,1-5.4c0.7-2.2,1.5-3.7,2.3-4.5c0.1,0.1,0.2-0.1,0.2-0.2l0,0
				c0-0.1-0.1-0.2-0.3-0.2c-1.1,0.1-2,0.3-2.6,0.6c-0.6,0.4-1.2,1.1-1.8,2.2c-0.5,0.9-0.9,2.1-1.2,3.6l0,0c-0.1,0.1-0.1,0.3-0.2,0.4
				c-0.3,0.5-0.5,1.1-0.9,1.8c-0.3,0.6-0.6,1.2-0.9,1.7c-0.3,0.5-0.7,0.9-1.1,1.3c-0.5,0.5-0.8,0.6-1,0.7l0,0
				c-0.2,0-0.4-0.1-0.4-0.7c-0.1-0.8,0.3-2.6,1-5.2c0.4-1.2,0.6-2,0.6-2.4c0.1-0.4,0.1-0.8,0.1-1.2c-0.1-1.3-0.8-1.9-2-1.8
				c-1.6,0.1-3.1,0.9-4.6,2.5h-0.1c-0.1,0-0.1-0.1-0.1-0.1c0.1-0.3,0.1-0.6,0.1-0.9c0-0.3-0.2-0.6-0.4-0.7c-0.2-0.2-0.7-0.2-1.5-0.2
				l-1.3,0.1c0,0,0,0-0.1,0s-0.1,0.1,0,0.2c0.1,0.1,0.1,0.3,0.1,0.4c0.1,0.9-0.2,2.6-0.8,4.9l-0.2,0.3c-0.1,0.1-0.2,0.3-0.4,0.8
				c-0.3,0.5-0.5,1.1-0.9,1.8c-0.3,0.7-0.7,1.3-0.9,1.8c-0.3,0.5-0.7,0.9-1.1,1.3c-0.6,0.5-0.9,0.6-1,0.6l0,0c-0.1,0-0.4,0-0.5-0.8
				c0-0.6,0.1-1.5,0.3-2.6c0.3-1.1,0.5-1.9,0.8-2.5c0.2-0.6,0.6-1.5,1.1-2.8c0.5-1.2,0.9-2,1.2-2.3v-0.1c0-0.1-0.1-0.1-0.1-0.1
				L33.9,11c-0.9,0.1-1.8,0.8-2.4,2.3c-0.6,1.3-1,2.6-1.4,3.9c0,0,0,0,0,0.1c-1.6,4-3,6.1-4.2,6.2l0,0c-0.1,0-0.4,0-0.4-0.7
				c0-0.6,0-1.3,0.3-2.3c0.1-0.4,0.2-0.9,0.3-1.4c0.2-0.6,0.3-1,0.4-1.3s0.2-0.7,0.4-1.3c0.2-0.5,0.3-1,0.4-1.4s0.2-0.9,0.1-1.3
				c-0.1-1.2-0.8-1.8-2-1.7c-0.7,0.1-1.3,0.2-1.9,0.5c-0.4,0.2-0.8,0.4-1.1,0.7c0,0-0.1,0-0.2,0c0,0,0-0.1,0-0.2
				c2-3,3.5-5.6,4.4-7.9c0.5-1.3,0.7-2.3,0.7-3.1c-0.1-1.1-0.7-1.7-1.8-1.6c-1.1,0.1-2,0.6-2.9,1.6c-0.9,1.1-1.7,2.3-2.3,3.6
				c-0.7,1.7-1.4,3.4-1.9,5.1c-0.6,2-1.4,4.8-2.2,8.3c-0.8,3.5-1.5,6.1-1.9,7.7l0,0c0,0.1,0.1,0.1,0.1,0.1l3.1-0.2v-0.1
				c0.1-0.7,0.3-1.3,0.4-1.9c0.1-0.5,0.3-1.3,0.5-2.1s0.4-1.6,0.5-2.2s0.4-1.3,0.7-2.2c0.3-0.8,0.7-1.5,1.2-2.2
				c0.4-0.6,1-1.1,1.6-1.5c0.7-0.4,1-0.5,1.2-0.5l0,0c0.2,0,0.4,0.1,0.4,0.5c0,0.3-0.1,0.9-0.3,1.7c-1.1,3.4-1.6,6.1-1.5,7.9
				c0.1,1.6,0.8,2.4,2.1,2.3c1.5-0.1,3.1-1.8,4.9-5c0-0.1,0.1-0.1,0.2-0.1s0.1,0.1,0.1,0.2c0,0.4,0,0.7,0,1.1
				c0.1,1.8,0.8,2.7,1.9,2.7h0.1c0.7,0,1.5-0.5,2.2-1.2c0.3-0.3,0.7-0.7,1-1.1c0.5-0.6,0.7-1,1.3-2c-0.1,0.3-0.7,2.5-0.6,3.1
				l3.3-0.2v-0.1c0-0.1,0.1-0.7,0.2-1.2c0.1-0.7,0.3-1.4,0.4-2c0.1-0.6,0.3-1.4,0.6-2.4c0.2-0.9,0.5-1.7,0.8-2.5
				c0.3-0.7,0.7-1.5,1.1-2.2c0.3-0.6,0.8-1.2,1.3-1.7c0.4-0.4,1-0.6,1.5-0.6s0.7,0.1,0.7,0.5c0,0.2,0,0.4-0.1,0.6
				c-1.3,4.6-1.9,7.6-1.8,9.1c0.1,1.6,0.8,2.3,2.1,2.2c0.7,0,1.5-0.5,2.2-1.2c0.8-0.8,1.5-1.7,2-2.6c0.2-0.3,0.4-0.7,0.6-1
				c0-0.1,0.1-0.1,0.2-0.1c0.1,0,0.1,0.1,0.1,0.2c0,0.2,0,0.4,0,0.5c0,1,0.3,1.7,0.7,2.2s0.9,0.7,1.5,0.7c0.5,0,1-0.1,1.5-0.3
				c0.4-0.2,1-0.6,1.7-1.3c0.5-0.6,1-1.2,1.5-1.9c0,0,0.1-0.1,0.1,0c0.1,0,0.1,0.1,0.1,0.2l-1.1,3.6c0,0,0,0.1-0.1,0.1
				c-19.6,2.9-2.9,14.1,3.1,0.4c0,0,0-0.1,0.1-0.1s0.2-0.1,0.3-0.1c1.6-0.8,2.5-1.4,4.5-3.3C66.5,17.7,66.6,16.8,67.4,15.3z
				 M20.7,12.9c0,0-0.1,0.1-0.1,0c-0.1,0-0.1-0.1-0.1-0.2c0.8-2.7,1.6-5.2,2.5-7.4c1.2-3.2,2-3.9,2.5-3.9l0,0c0.1,0,0.3,0,0.3,0.5
				c0,0.4-0.2,1.4-0.7,2.8C24.3,7,22.8,9.7,20.7,12.9z M50,27.2c-0.6-1.3,5.4-2.9,5.9-3C54.8,26.7,50.7,28.7,50,27.2z"/>
			<path class="st0" d="M35,8.6c0.8,0,1.7-0.3,1.9-1.4c0.1-0.5-0.2-1.1-0.4-1.3s-0.4-0.2-0.8-0.2c-0.3,0-0.8,0.2-1.1,0.6
				c-0.5,0.5-0.5,1.2-0.3,1.6C34.4,8.3,34.7,8.6,35,8.6z"/>
			<path class="st0" d="M3.7,27.5c0.5,0,8.1,1.7,10.2-5.8c0.8-3.2-3-7.3-3.3-7.8l0,0C6,9.2,8.4,4.5,11.6,5c2.3,0.4,1.1,3.8,2.4,4.1
				l0,0c0.7,0.1,2.2-1.7,2.4-2.3c0.8-2.3-4-3.8-5.4-3.7C8,3.4,6.1,5,5,7.6c-2.2,4.8,1.9,8,4.3,11.3c1.8,2.5,1.8,4.7-0.5,6.9
				c-2.5,2.4-5-1-5.3-3.3c-0.3-2.1-0.6-3.5-2.4-0.8C-0.6,24.2,1.7,27.2,3.7,27.5z"/>
		</g>
	</g>
</g>
</svg>
